<svg width="400" height="480" viewBox="0 0 400 480" xmlns="http://www.w3.org/2000/svg">
  <defs>
    <linearGradient id="jerseyGradient_fra-home-2022" x1="0%" y1="0%" x2="100%" y2="100%">
      <stop offset="0%" style="stop-color:#001e68;stop-opacity:1" />
      <stop offset="100%" style="stop-color:#00004a;stop-opacity:1" />
    </linearGradient>
    <filter id="shadow_fra-home-2022" x="-20%" y="-20%" width="140%" height="140%">
      <feDropShadow dx="2" dy="4" stdDeviation="3" flood-opacity="0.3"/>
    </filter>
  </defs>
  
  <!-- Background -->
  <rect width="400" height="480" fill="#f8fafc"/>
  
  <!-- Jersey main body -->
  <path d="M80 100 L100 80 L140 80 L140 100 L160 100 L160 140 L140 140 L140 160 L260 160 L260 140 L240 140 L240 100 L260 100 L260 80 L300 80 L320 100 L320 420 L80 420 Z" 
        fill="url(#jerseyGradient_fra-home-2022)" 
        stroke="#ffffff" 
        stroke-width="3"
        filter="url(#shadow_fra-home-2022)"/>
  <!-- Team crest area -->
  <circle cx="200" cy="120" r="18" fill="#ffffff" stroke="#ed2939" stroke-width="2"/>
  <text x="200" y="120" text-anchor="middle" font-family="Arial, sans-serif" font-size="8" fill="#001e68" font-weight="bold">FRA</text>
  
  <!-- Collar -->
  <rect x="140" y="80" width="120" height="8" fill="#ed2939" rx="4"/>
  
  <!-- Sleeve details -->
  <rect x="80" y="100" width="8" height="60" fill="#ed2939"/>
  <rect x="312" y="100" width="8" height="60" fill="#ed2939"/>
  
  <!-- Sponsor area (placeholder) -->
  <rect x="160" y="200" width="80" height="20" fill="#ffffff" opacity="0.1" rx="4"/>
  
  <!-- Number placeholder -->
  <text x="200" y="370" text-anchor="middle" font-family="Arial, sans-serif" font-size="32" fill="#ffffff" font-weight="bold">10</text>
  
  <!-- Size tag -->
  <rect x="320" y="400" width="60" height="15" fill="#ed2939" opacity="0.8"/>
  <text x="350" y="410" text-anchor="middle" font-family="Arial, sans-serif" font-size="8" fill="white">LARGE</text></svg>