<svg xmlns="http://www.w3.org/2000/svg" viewBox="0 0 100 100" width="100" height="100">
  <defs>
    <linearGradient id="logoGradient" x1="0%" y1="0%" x2="100%" y2="100%">
      <stop offset="0%" style="stop-color:#1a5f3f;stop-opacity:1" />
      <stop offset="100%" style="stop-color:#d4af37;stop-opacity:1" />
    </linearGradient>
    <filter id="shadow" x="-20%" y="-20%" width="140%" height="140%">
      <feDropShadow dx="2" dy="2" stdDeviation="3" flood-color="rgba(0,0,0,0.3)"/>
    </filter>
  </defs>
  
  <!-- Soccer ball base -->
  <circle cx="50" cy="50" r="35" fill="url(#logoGradient)" filter="url(#shadow)"/>
  
  <!-- Soccer ball pattern -->
  <g fill="white" opacity="0.9">
    <!-- Pentagon in center -->
    <polygon points="50,25 60,35 55,50 45,50 40,35" stroke="rgba(26,95,63,0.3)" stroke-width="1"/>
    
    <!-- Hexagons around -->
    <polygon points="50,25 40,35 35,25 40,15 50,15 55,25" stroke="rgba(26,95,63,0.3)" stroke-width="0.5" opacity="0.7"/>
    <polygon points="60,35 70,25 80,35 75,50 65,50 55,40" stroke="rgba(26,95,63,0.3)" stroke-width="0.5" opacity="0.7"/>
    <polygon points="40,65 30,75 20,65 25,50 35,50 45,60" stroke="rgba(26,95,63,0.3)" stroke-width="0.5" opacity="0.7"/>
  </g>
  
  <!-- Trophy cup overlay -->
  <g transform="translate(50,50)" opacity="0.8">
    <path d="M-8,-15 L8,-15 L6,-5 L-6,-5 Z" fill="#d4af37" stroke="#b8941f" stroke-width="1"/>
    <rect x="-6" y="-5" width="12" height="3" fill="#d4af37"/>
    <rect x="-4" y="-2" width="8" height="8" fill="#d4af37"/>
    <ellipse cx="0" cy="8" rx="6" ry="2" fill="#b8941f"/>
  </g>
  
  <!-- Shine effect -->
  <ellipse cx="40" cy="35" rx="8" ry="12" fill="white" opacity="0.3" transform="rotate(-30 40 35)"/>
</svg>